<mxfile host="app.diagrams.net" modified="2021-01-13T21:15:13.797Z" agent="5.0 (Windows NT 10.0; Win64; x64) AppleWebKit/537.36 (KHTML, like Gecko) Chrome/87.0.4280.88 Safari/537.36" etag="asUdw3WSNO7fw1SMpovq" version="14.1.8" type="github">
  <diagram id="GWUtx0mkdcFAff8LUsY9" name="Page-1">
    <mxGraphModel dx="1074" dy="553" grid="1" gridSize="10" guides="1" tooltips="1" connect="1" arrows="1" fold="1" page="1" pageScale="1" pageWidth="827" pageHeight="1169" math="0" shadow="0">
      <root>
        <mxCell id="0" />
        <mxCell id="1" parent="0" />
        <mxCell id="l-R3oLqL8dNd-ouCFsxR-1" value="&lt;span style=&quot;font-weight: 400&quot;&gt;&amp;nbsp;System quora&lt;/span&gt;" style="shape=rect;html=1;verticalAlign=top;fontStyle=1;whiteSpace=wrap;align=center;fillColor=#e1d5e7;strokeColor=#9673a6;" parent="1" vertex="1">
          <mxGeometry x="245" y="60" width="605" height="1000" as="geometry" />
        </mxCell>
        <mxCell id="TnZsw2dClQ1X5A-xfWts-3" value="&lt;font style=&quot;font-size: 11px&quot;&gt;Poser un Question&lt;/font&gt;" style="ellipse;whiteSpace=wrap;html=1;" vertex="1" parent="1">
          <mxGeometry x="350" y="100" width="124" height="40" as="geometry" />
        </mxCell>
        <mxCell id="TnZsw2dClQ1X5A-xfWts-4" value="un questionneur&amp;nbsp;" style="shape=umlActor;html=1;verticalLabelPosition=bottom;verticalAlign=top;align=center;" vertex="1" parent="1">
          <mxGeometry x="130" y="285" width="30" height="60" as="geometry" />
        </mxCell>
        <mxCell id="TnZsw2dClQ1X5A-xfWts-5" value="&lt;span style=&quot;font-family: &amp;#34;nunito sans&amp;#34; , sans-serif ; background-color: rgb(255 , 255 , 255)&quot;&gt;&lt;font style=&quot;font-size: 11px&quot;&gt;Connaissances dans le domaine&lt;/font&gt;&lt;/span&gt;" style="ellipse;whiteSpace=wrap;html=1;" vertex="1" parent="1">
          <mxGeometry x="260" y="255" width="140" height="50" as="geometry" />
        </mxCell>
        <mxCell id="TnZsw2dClQ1X5A-xfWts-7" value="&lt;span style=&quot;font-family: &amp;#34;nunito sans&amp;#34; , sans-serif ; background-color: rgb(255 , 255 , 255) ; font-size: 11px&quot;&gt;&amp;nbsp;Introduction&lt;/span&gt;" style="ellipse;whiteSpace=wrap;html=1;" vertex="1" parent="1">
          <mxGeometry x="550" y="240" width="120" height="45" as="geometry" />
        </mxCell>
        <mxCell id="TnZsw2dClQ1X5A-xfWts-8" value="&lt;span style=&quot;font-family: &amp;#34;nunito sans&amp;#34; , sans-serif ; background-color: rgb(255 , 255 , 255) ; font-size: 11px&quot;&gt;Formulation de la question&lt;/span&gt;" style="ellipse;whiteSpace=wrap;html=1;" vertex="1" parent="1">
          <mxGeometry x="339" y="330" width="130" height="40" as="geometry" />
        </mxCell>
        <mxCell id="TnZsw2dClQ1X5A-xfWts-11" value="&amp;lt;&amp;lt;include&amp;gt;&amp;gt;" style="edgeStyle=none;html=1;endArrow=open;verticalAlign=bottom;dashed=1;labelBackgroundColor=none;entryX=0.361;entryY=0.036;entryDx=0;entryDy=0;entryPerimeter=0;" edge="1" parent="1" target="TnZsw2dClQ1X5A-xfWts-7">
          <mxGeometry width="160" relative="1" as="geometry">
            <mxPoint x="460" y="130" as="sourcePoint" />
            <mxPoint x="620" y="130" as="targetPoint" />
          </mxGeometry>
        </mxCell>
        <mxCell id="TnZsw2dClQ1X5A-xfWts-13" value="&amp;lt;&amp;lt;include&amp;gt;&amp;gt;" style="edgeStyle=none;html=1;endArrow=open;verticalAlign=bottom;dashed=1;labelBackgroundColor=none;entryX=0.5;entryY=0;entryDx=0;entryDy=0;" edge="1" parent="1" target="TnZsw2dClQ1X5A-xfWts-5">
          <mxGeometry width="160" relative="1" as="geometry">
            <mxPoint x="360" y="130" as="sourcePoint" />
            <mxPoint x="520" y="130" as="targetPoint" />
          </mxGeometry>
        </mxCell>
        <mxCell id="TnZsw2dClQ1X5A-xfWts-14" value="" style="edgeStyle=none;html=1;endArrow=none;verticalAlign=bottom;" edge="1" parent="1">
          <mxGeometry width="160" relative="1" as="geometry">
            <mxPoint x="160" y="310" as="sourcePoint" />
            <mxPoint x="351" y="120" as="targetPoint" />
          </mxGeometry>
        </mxCell>
        <mxCell id="TnZsw2dClQ1X5A-xfWts-15" value="login" style="ellipse;whiteSpace=wrap;html=1;" vertex="1" parent="1">
          <mxGeometry x="687" y="170" width="140" height="60" as="geometry" />
        </mxCell>
        <mxCell id="TnZsw2dClQ1X5A-xfWts-16" value="&amp;lt;&amp;lt;include&amp;gt;&amp;gt;" style="edgeStyle=none;html=1;endArrow=open;verticalAlign=bottom;dashed=1;labelBackgroundColor=none;entryX=0;entryY=0.5;entryDx=0;entryDy=0;" edge="1" parent="1" target="TnZsw2dClQ1X5A-xfWts-15">
          <mxGeometry width="160" relative="1" as="geometry">
            <mxPoint x="480" y="120" as="sourcePoint" />
            <mxPoint x="640" y="120" as="targetPoint" />
          </mxGeometry>
        </mxCell>
        <mxCell id="TnZsw2dClQ1X5A-xfWts-17" value="&lt;span style=&quot;font-family: &amp;#34;nunito sans&amp;#34; , sans-serif ; background-color: rgb(255 , 255 , 255)&quot;&gt;&lt;font style=&quot;font-size: 12px&quot;&gt;répondeurs&lt;/font&gt;&lt;/span&gt;" style="shape=umlActor;html=1;verticalLabelPosition=bottom;verticalAlign=top;align=center;" vertex="1" parent="1">
          <mxGeometry x="930" y="345" width="30" height="60" as="geometry" />
        </mxCell>
        <mxCell id="TnZsw2dClQ1X5A-xfWts-6" value="&lt;span style=&quot;font-family: &amp;#34;nunito sans&amp;#34; , sans-serif ; background-color: rgb(255 , 255 , 255) ; font-size: 11px&quot;&gt;Description&lt;/span&gt;" style="ellipse;whiteSpace=wrap;html=1;" vertex="1" parent="1">
          <mxGeometry x="474" y="320" width="120" height="40" as="geometry" />
        </mxCell>
        <mxCell id="TnZsw2dClQ1X5A-xfWts-19" value="&amp;lt;&amp;lt;include&amp;gt;&amp;gt;" style="edgeStyle=none;html=1;endArrow=open;verticalAlign=bottom;dashed=1;labelBackgroundColor=none;" edge="1" parent="1" target="TnZsw2dClQ1X5A-xfWts-6">
          <mxGeometry width="160" relative="1" as="geometry">
            <mxPoint x="430" y="140" as="sourcePoint" />
            <mxPoint x="580" y="330" as="targetPoint" />
            <Array as="points" />
          </mxGeometry>
        </mxCell>
        <mxCell id="TnZsw2dClQ1X5A-xfWts-20" value="&lt;span style=&quot;font-family: &amp;#34;nunito sans&amp;#34; , sans-serif ; background-color: rgb(255 , 255 , 255) ; font-size: 11px&quot;&gt;&amp;nbsp;réponse&lt;/span&gt;" style="ellipse;whiteSpace=wrap;html=1;" vertex="1" parent="1">
          <mxGeometry x="540" y="470" width="140" height="50" as="geometry" />
        </mxCell>
        <mxCell id="TnZsw2dClQ1X5A-xfWts-21" value="&amp;lt;&amp;lt;include&amp;gt;&amp;gt;" style="edgeStyle=none;html=1;endArrow=open;verticalAlign=bottom;dashed=1;labelBackgroundColor=none;entryX=0.621;entryY=-0.067;entryDx=0;entryDy=0;entryPerimeter=0;" edge="1" parent="1" target="TnZsw2dClQ1X5A-xfWts-8">
          <mxGeometry width="160" relative="1" as="geometry">
            <mxPoint x="400" y="140" as="sourcePoint" />
            <mxPoint x="560" y="140" as="targetPoint" />
          </mxGeometry>
        </mxCell>
        <mxCell id="TnZsw2dClQ1X5A-xfWts-22" value="" style="edgeStyle=none;html=1;endArrow=none;verticalAlign=bottom;" edge="1" parent="1">
          <mxGeometry width="160" relative="1" as="geometry">
            <mxPoint x="680" y="489" as="sourcePoint" />
            <mxPoint x="920" y="380" as="targetPoint" />
          </mxGeometry>
        </mxCell>
        <mxCell id="TnZsw2dClQ1X5A-xfWts-23" value="&lt;span style=&quot;font-family: &amp;#34;nunito sans&amp;#34; , sans-serif ; background-color: rgb(255 , 255 , 255) ; font-size: 11px&quot;&gt;&amp;nbsp;0 -&amp;gt; Aucune connaissance&lt;/span&gt;" style="ellipse;whiteSpace=wrap;html=1;" vertex="1" parent="1">
          <mxGeometry x="330" y="400" width="140" height="50" as="geometry" />
        </mxCell>
        <mxCell id="TnZsw2dClQ1X5A-xfWts-24" value="&lt;span style=&quot;font-family: &amp;#34;nunito sans&amp;#34; , sans-serif ; background-color: rgb(255 , 255 , 255) ; font-size: 11px&quot;&gt;2 -&amp;gt; Connaissance suffisante&lt;/span&gt;" style="ellipse;whiteSpace=wrap;html=1;" vertex="1" parent="1">
          <mxGeometry x="330" y="490" width="140" height="50" as="geometry" />
        </mxCell>
        <mxCell id="TnZsw2dClQ1X5A-xfWts-25" value="&lt;span style=&quot;font-family: &amp;#34;nunito sans&amp;#34; , sans-serif ; background-color: rgb(255 , 255 , 255) ; font-size: 11px&quot;&gt;4 -&amp;gt; Bonne connaissance&lt;/span&gt;" style="ellipse;whiteSpace=wrap;html=1;" vertex="1" parent="1">
          <mxGeometry x="334" y="585" width="140" height="50" as="geometry" />
        </mxCell>
        <mxCell id="TnZsw2dClQ1X5A-xfWts-26" value="&lt;span style=&quot;font-family: &amp;#34;nunito sans&amp;#34; , sans-serif ; background-color: rgb(255 , 255 , 255) ; font-size: 11px&quot;&gt;5 -&amp;gt; Très bonne connaissance&lt;/span&gt;" style="ellipse;whiteSpace=wrap;html=1;" vertex="1" parent="1">
          <mxGeometry x="334" y="660" width="140" height="50" as="geometry" />
        </mxCell>
        <mxCell id="TnZsw2dClQ1X5A-xfWts-27" value="20&amp;nbsp;&lt;span style=&quot;font-family: &amp;#34;nunito sans&amp;#34; , sans-serif ; background-color: rgb(255 , 255 , 255) ; font-size: 11px&quot;&gt;&amp;nbsp;réponse&lt;/span&gt;" style="ellipse;whiteSpace=wrap;html=1;" vertex="1" parent="1">
          <mxGeometry x="590" y="620" width="140" height="60" as="geometry" />
        </mxCell>
        <mxCell id="TnZsw2dClQ1X5A-xfWts-29" value="&amp;lt;&amp;lt;include&amp;gt;&amp;gt;" style="edgeStyle=none;html=1;endArrow=open;verticalAlign=bottom;dashed=1;labelBackgroundColor=none;" edge="1" parent="1">
          <mxGeometry width="160" relative="1" as="geometry">
            <mxPoint x="610" y="470" as="sourcePoint" />
            <mxPoint x="740" y="230" as="targetPoint" />
          </mxGeometry>
        </mxCell>
        <mxCell id="TnZsw2dClQ1X5A-xfWts-30" value="&amp;lt;&amp;lt;include&amp;gt;&amp;gt;" style="edgeStyle=none;html=1;endArrow=open;verticalAlign=bottom;dashed=1;labelBackgroundColor=none;entryX=0.5;entryY=1;entryDx=0;entryDy=0;" edge="1" parent="1" target="TnZsw2dClQ1X5A-xfWts-20">
          <mxGeometry width="160" relative="1" as="geometry">
            <mxPoint x="630" y="620" as="sourcePoint" />
            <mxPoint x="790" y="620" as="targetPoint" />
          </mxGeometry>
        </mxCell>
        <mxCell id="TnZsw2dClQ1X5A-xfWts-31" value="" style="edgeStyle=none;html=1;endArrow=block;endFill=0;endSize=12;verticalAlign=bottom;entryX=0.048;entryY=0.667;entryDx=0;entryDy=0;entryPerimeter=0;" edge="1" parent="1" target="TnZsw2dClQ1X5A-xfWts-20">
          <mxGeometry width="160" relative="1" as="geometry">
            <mxPoint x="470" y="510" as="sourcePoint" />
            <mxPoint x="630" y="510" as="targetPoint" />
          </mxGeometry>
        </mxCell>
        <mxCell id="TnZsw2dClQ1X5A-xfWts-32" value="" style="edgeStyle=none;html=1;endArrow=block;endFill=0;endSize=12;verticalAlign=bottom;entryX=0;entryY=0;entryDx=0;entryDy=0;" edge="1" parent="1" target="TnZsw2dClQ1X5A-xfWts-20">
          <mxGeometry width="160" relative="1" as="geometry">
            <mxPoint x="420" y="450" as="sourcePoint" />
            <mxPoint x="580" y="450" as="targetPoint" />
          </mxGeometry>
        </mxCell>
        <mxCell id="TnZsw2dClQ1X5A-xfWts-35" value="" style="edgeStyle=none;html=1;endArrow=block;endFill=0;endSize=12;verticalAlign=bottom;exitX=0.767;exitY=0.033;exitDx=0;exitDy=0;exitPerimeter=0;entryX=0;entryY=1;entryDx=0;entryDy=0;" edge="1" parent="1" source="TnZsw2dClQ1X5A-xfWts-25" target="TnZsw2dClQ1X5A-xfWts-20">
          <mxGeometry width="160" relative="1" as="geometry">
            <mxPoint x="440" y="580" as="sourcePoint" />
            <mxPoint x="600" y="580" as="targetPoint" />
          </mxGeometry>
        </mxCell>
        <mxCell id="TnZsw2dClQ1X5A-xfWts-37" value="" style="edgeStyle=none;html=1;endArrow=block;endFill=0;endSize=12;verticalAlign=bottom;entryX=0.281;entryY=0.947;entryDx=0;entryDy=0;entryPerimeter=0;" edge="1" parent="1" target="TnZsw2dClQ1X5A-xfWts-20">
          <mxGeometry width="160" relative="1" as="geometry">
            <mxPoint x="460" y="670" as="sourcePoint" />
            <mxPoint x="620" y="670" as="targetPoint" />
          </mxGeometry>
        </mxCell>
        <mxCell id="TnZsw2dClQ1X5A-xfWts-38" value="" style="edgeStyle=none;html=1;endArrow=none;verticalAlign=bottom;entryX=0.207;entryY=0.73;entryDx=0;entryDy=0;entryPerimeter=0;" edge="1" parent="1" target="l-R3oLqL8dNd-ouCFsxR-1">
          <mxGeometry width="160" relative="1" as="geometry">
            <mxPoint x="160" y="310" as="sourcePoint" />
            <mxPoint x="320" y="310" as="targetPoint" />
          </mxGeometry>
        </mxCell>
        <mxCell id="TnZsw2dClQ1X5A-xfWts-39" value="Paiement" style="ellipse;whiteSpace=wrap;html=1;" vertex="1" parent="1">
          <mxGeometry x="350" y="780" width="140" height="60" as="geometry" />
        </mxCell>
        <mxCell id="TnZsw2dClQ1X5A-xfWts-40" value="&amp;lt;&amp;lt;include&amp;gt;&amp;gt;" style="edgeStyle=none;html=1;endArrow=open;verticalAlign=bottom;dashed=1;labelBackgroundColor=none;entryX=1;entryY=0;entryDx=0;entryDy=0;" edge="1" parent="1" target="TnZsw2dClQ1X5A-xfWts-39">
          <mxGeometry width="160" relative="1" as="geometry">
            <mxPoint x="590" y="520" as="sourcePoint" />
            <mxPoint x="750" y="520" as="targetPoint" />
          </mxGeometry>
        </mxCell>
        <mxCell id="TnZsw2dClQ1X5A-xfWts-41" value="&lt;span style=&quot;font-family: &amp;#34;nunito sans&amp;#34; , sans-serif ; background-color: rgb(255 , 255 , 255) ; font-size: 11px&quot;&gt;50% du paiement sera versé à la plateforme&lt;/span&gt;" style="ellipse;whiteSpace=wrap;html=1;" vertex="1" parent="1">
          <mxGeometry x="430" y="900" width="140" height="60" as="geometry" />
        </mxCell>
        <mxCell id="TnZsw2dClQ1X5A-xfWts-42" value="&lt;span style=&quot;font-family: &amp;#34;nunito sans&amp;#34; , sans-serif ; background-color: rgb(255 , 255 , 255) ; font-size: 11px&quot;&gt;&amp;nbsp;50% au paiement sera versé au répondeurs&lt;/span&gt;" style="ellipse;whiteSpace=wrap;html=1;" vertex="1" parent="1">
          <mxGeometry x="594" y="810" width="140" height="60" as="geometry" />
        </mxCell>
        <mxCell id="TnZsw2dClQ1X5A-xfWts-43" value="&amp;lt;&amp;lt;include&amp;gt;&amp;gt;" style="edgeStyle=none;html=1;endArrow=open;verticalAlign=bottom;dashed=1;labelBackgroundColor=none;entryX=0.367;entryY=-0.022;entryDx=0;entryDy=0;entryPerimeter=0;" edge="1" parent="1" target="TnZsw2dClQ1X5A-xfWts-41">
          <mxGeometry width="160" relative="1" as="geometry">
            <mxPoint x="400" y="840" as="sourcePoint" />
            <mxPoint x="560" y="840" as="targetPoint" />
          </mxGeometry>
        </mxCell>
        <mxCell id="TnZsw2dClQ1X5A-xfWts-44" value="&amp;lt;&amp;lt;include&amp;gt;&amp;gt;" style="edgeStyle=none;html=1;endArrow=open;verticalAlign=bottom;dashed=1;labelBackgroundColor=none;entryX=0.029;entryY=0.289;entryDx=0;entryDy=0;entryPerimeter=0;" edge="1" parent="1" target="TnZsw2dClQ1X5A-xfWts-42">
          <mxGeometry width="160" relative="1" as="geometry">
            <mxPoint x="490" y="810" as="sourcePoint" />
            <mxPoint x="640" y="810" as="targetPoint" />
          </mxGeometry>
        </mxCell>
        <mxCell id="TnZsw2dClQ1X5A-xfWts-45" value="" style="edgeStyle=none;html=1;endArrow=none;verticalAlign=bottom;entryX=1;entryY=0;entryDx=0;entryDy=0;" edge="1" parent="1" target="TnZsw2dClQ1X5A-xfWts-42">
          <mxGeometry width="160" relative="1" as="geometry">
            <mxPoint x="920" y="380" as="sourcePoint" />
            <mxPoint x="1080" y="380" as="targetPoint" />
          </mxGeometry>
        </mxCell>
      </root>
    </mxGraphModel>
  </diagram>
</mxfile>
